<svg xmlns="http://www.w3.org/2000/svg" viewBox="0 0 100 100" width="100" height="100">
  <!-- Robot car body (chassis) -->
  <rect x="15" y="25" width="70" height="50" rx="5" fill="#2563eb" stroke="#1e40af" stroke-width="2"/>
  
  <!-- Arduino board (top center) -->
  <rect x="35" y="30" width="30" height="20" rx="2" fill="#059669" stroke="#047857" stroke-width="1"/>
  
  <!-- Wheels -->
  <circle cx="25" cy="20" r="8" fill="#374151" stroke="#1f2937" stroke-width="2"/>
  <circle cx="75" cy="20" r="8" fill="#374151" stroke="#1f2937" stroke-width="2"/>
  <circle cx="25" cy="80" r="8" fill="#374151" stroke="#1f2937" stroke-width="2"/>
  <circle cx="75" cy="80" r="8" fill="#374151" stroke="#1f2937" stroke-width="2"/>
  
  <!-- Wheel centers -->
  <circle cx="25" cy="20" r="3" fill="#6b7280"/>
  <circle cx="75" cy="20" r="3" fill="#6b7280"/>
  <circle cx="25" cy="80" r="3" fill="#6b7280"/>
  <circle cx="75" cy="80" r="3" fill="#6b7280"/>
  
  <!-- Motors -->
  <rect x="10" y="35" width="15" height="30" rx="2" fill="#dc2626" stroke="#b91c1c" stroke-width="1"/>
  <rect x="75" y="35" width="15" height="30" rx="2" fill="#dc2626" stroke="#b91c1c" stroke-width="1"/>
  
  <!-- Sensors (ultrasonic sensor - "eyes") -->
  <circle cx="40" cy="20" r="4" fill="#fbbf24" stroke="#f59e0b" stroke-width="1"/>
  <circle cx="60" cy="20" r="4" fill="#fbbf24" stroke="#f59e0b" stroke-width="1"/>
  <circle cx="40" cy="20" r="2" fill="#1f2937"/>
  <circle cx="60" cy="20" r="2" fill="#1f2937"/>
  
  <!-- LED indicator -->
  <circle cx="50" cy="40" r="2" fill="#ef4444"/>
  
  <!-- Wires -->
  <path d="M35 50 Q30 55 25 60" stroke="#7c3aed" stroke-width="2" fill="none"/>
  <path d="M65 50 Q70 55 75 60" stroke="#7c3aed" stroke-width="2" fill="none"/>
  
  <!-- Direction indicator (front bumper) -->
  <rect x="45" y="15" width="10" height="4" rx="2" fill="#f97316"/>
</svg> 